<svg xmlns="http://www.w3.org/2000/svg" width="1024" height="1024" viewBox="0 0 1024 1024">&gt;<path d="m205 15 1.8.227c11.972 1.53 23.657 3.734 35.2 7.273l1.532.457c20.613 6.2 40.192 16.024 56.968 29.543l1.387 1.095C309.966 60.067 317.605 67.356 324 75.5q.688.83 1.379 1.657c11.928 14.37 20.756 31.517 27.124 48.986a165 165 0 0 0 1.239 3.275c2.045 5.378 3.396 10.977 4.85 16.538a381 381 0 0 0 1.21 4.449 96 96 0 0 1 1.541 6.533l.381 1.871C362 160.5 362 160.5 362 163h568c-.801 2.405-1.482 3.938-2.781 6.032l-1.213 1.984-.707 1.159c-1.48 2.455-2.924 4.934-4.37 7.41l-2.796 4.777-.556.949a2053 2053 0 0 1-4.827 8.189 3163 3163 0 0 0-7.5 12.75 3495 3495 0 0 1-8.274 14.056 3048 3048 0 0 0-6.726 11.444 3177 3177 0 0 1-7.5 12.75 3342 3342 0 0 0-7.375 12.531l-.54.921L871 264.5l-4.375 7.469-.54.922a3437 3437 0 0 1-7.609 12.916c-2.252 3.808-4.49 7.625-6.726 11.443a3495 3495 0 0 1-8.274 14.056 3048 3048 0 0 0-6.726 11.444 3495 3495 0 0 1-8.274 14.056 3048 3048 0 0 0-6.726 11.444 3478 3478 0 0 1-8.277 14.062 3116 3116 0 0 0-7.173 12.209q-3.927 6.705-7.895 13.385a2117 2117 0 0 0-9.09 15.477 4190 4190 0 0 1-6.098 10.43l-.548.936q-3.833 6.537-7.694 13.058a3039 3039 0 0 0-6.725 11.443 3495 3495 0 0 1-8.274 14.056 3048 3048 0 0 0-6.726 11.444 3495 3495 0 0 1-8.274 14.056 3048 3048 0 0 0-6.726 11.444 3177 3177 0 0 1-7.5 12.75 3342 3342 0 0 0-7.915 13.453L719 523l-4.375 7.469-.54.922a3437 3437 0 0 1-7.609 12.916c-2.252 3.808-4.49 7.625-6.726 11.443a3495 3495 0 0 1-8.274 14.056 3048 3048 0 0 0-6.726 11.444 3495 3495 0 0 1-8.274 14.056 3048 3048 0 0 0-6.726 11.444 3177 3177 0 0 1-7.5 12.75 3342 3342 0 0 0-7.915 13.453L650.5 639.5l-4.375 7.469-.54.922a3437 3437 0 0 1-7.609 12.916c-2.252 3.808-4.49 7.625-6.726 11.443a3495 3495 0 0 1-8.274 14.056 3048 3048 0 0 0-6.726 11.444 3495 3495 0 0 1-8.274 14.056 3048 3048 0 0 0-6.726 11.444 3177 3177 0 0 1-7.5 12.75 3342 3342 0 0 0-7.915 13.453L582 756l-4.375 7.469-.54.922a3437 3437 0 0 1-7.609 12.916c-2.252 3.808-4.49 7.625-6.726 11.443a3495 3495 0 0 1-8.274 14.056 3048 3048 0 0 0-6.726 11.444 3495 3495 0 0 1-8.274 14.056 3283 3283 0 0 0-7.273 12.377 3138 3138 0 0 1-8.017 13.615q-.702 1.187-1.385 2.382c-.801 1.319-.801 1.319-1.696 2.485-3.522 4.959-3.076 10.028-3.003 15.888q.002 1.671-.002 3.342c-.001 3.01.02 6.02.044 9.03.022 3.151.024 6.302.028 9.453q.015 7.926.063 15.852a5121 5121 0 0 1 .075 17.337l.013 5.056c.036 13.959.098 27.916.176 41.874l1.082.372 15.534 5.345q16.443 5.656 32.855 11.398a14838 14838 0 0 0 14.408 5.032q8.11 2.832 16.227 5.644l1.681.583 8.111 2.809 2.961 1.026 1.331.46a554 554 0 0 1 9.309 3.331v.5H401.5c1.342-.895 2.349-1.351 3.853-1.867l1.46-.504 1.593-.541 1.665-.573q1.78-.612 3.562-1.221a3326 3326 0 0 0 7.575-2.6l.958-.33 2.886-.991a3084 3084 0 0 0 15.947-5.53l7.936-2.772 12.659-4.421 14.224-4.966.991-.346q5.923-2.067 11.844-4.145l6.1-2.138 2.785-.979q1.883-.663 3.768-1.322l1.107-.392c2.473-.863 2.473-.863 3.587-.863.108-14.174.176-28.348.192-42.523l.006-5.042.002-1.014c.007-5.054.037-10.108.08-15.162q.074-8.817.06-17.636a658 658 0 0 1 .045-9.322c.49-18.212.49-18.212-7.439-34.066-1.595-2.083-2.841-4.364-4.134-6.642q-.792-1.342-1.59-2.682c-2.002-3.38-3.987-6.771-5.973-10.162a3152 3152 0 0 0-7.5-12.75 3404 3404 0 0 1-8.052-13.692 2961 2961 0 0 0-6.947-11.803 3404 3404 0 0 1-8.052-13.692 3272 3272 0 0 0-7.725-13.12 3116 3116 0 0 1-7.172-12.209q-3.927-6.705-7.895-13.385a2117 2117 0 0 1-9.09-15.477 4190 4190 0 0 0-6.097-10.43l-.549-.936q-3.833-6.537-7.694-13.058a3289 3289 0 0 1-7.279-12.385A2961 2961 0 0 0 396.25 678a3404 3404 0 0 1-8.052-13.692 3272 3272 0 0 0-7.725-13.12 3116 3116 0 0 1-7.172-12.209q-3.927-6.705-7.895-13.385a2117 2117 0 0 1-9.09-15.477 4190 4190 0 0 0-6.097-10.43l-.549-.936q-3.833-6.537-7.694-13.058a3289 3289 0 0 1-7.279-12.385 2961 2961 0 0 0-6.947-11.808 3404 3404 0 0 1-8.052-13.692A2961 2961 0 0 0 312.75 536a3404 3404 0 0 1-8.052-13.692 2967 2967 0 0 0-6.948-11.808 3342 3342 0 0 1-7.375-12.531l-.54-.922-4.387-7.49-3.823-6.526-.54-.922a3437 3437 0 0 0-7.609-12.916 3291 3291 0 0 1-7.278-12.385A2961 2961 0 0 0 259.25 445a3404 3404 0 0 1-8.052-13.692 2961 2961 0 0 0-6.948-11.808 3404 3404 0 0 1-8.052-13.692A2967 2967 0 0 0 229.25 394a3342 3342 0 0 1-7.915-13.453l-4.387-7.49-3.823-6.526-.54-.922a3437 3437 0 0 0-7.609-12.916 3291 3291 0 0 1-7.278-12.385 2961 2961 0 0 0-6.948-11.808 3404 3404 0 0 1-8.052-13.692A2961 2961 0 0 0 175.75 303a3404 3404 0 0 1-8.052-13.692 3272 3272 0 0 0-7.725-13.12 3116 3116 0 0 1-7.172-12.209q-3.927-6.705-7.895-13.385a2117 2117 0 0 1-9.09-15.477 4190 4190 0 0 0-6.098-10.43l-.548-.936q-3.833-6.537-7.694-13.058a3289 3289 0 0 1-7.279-12.385 3256 3256 0 0 0-7.71-13.096c-2.736-4.624-5.45-9.26-8.165-13.896l-.534-.913-1.442-2.462a122 122 0 0 0-1.708-2.817C94 164 94 164 94 163l118-.5-3.5-3.5a84 84 0 0 1-1.764-1.975l-.877-1.016L205 155l-.819-.96c-9.619-11.374-18.261-23.62-25.681-36.54l-.719-1.238c-15.883-27.367-27.169-57.407-35.224-87.963q-.273-1.035-.549-2.07a411 411 0 0 1-.756-2.9l-.44-1.691c-.333-1.748-.366-3.362-.312-5.138 21.378-3.329 43.008-4.298 64.5-1.5" fill="#EDEEFB"/><path d="m486 211 1.208.219c8.518 1.594 16.863 4.296 24.791 7.781l1.191.523c9.406 4.186 17.909 9.377 25.809 15.977l.88.727c18.652 15.428 32.501 36.256 38.62 59.773l.346 1.326a595 595 0 0 1 1.695 6.688l.269 1.09C581 306 581 306 581 307l1.086.172c2.588.6 4.854 1.977 7.195 3.203l1.683.88c9.826 5.218 18.971 11.654 27.535 18.745l1.475 1.194c3.931 3.235 7.574 6.749 11.181 10.338l1.393 1.378c3.03 3.044 5.779 6.231 8.451 9.591q.75.906 1.506 1.808c20.929 25.323 32.504 56.781 35.995 89.191l.158 1.236c.513 4.266.443 8.568.436 12.858l-.002 1.286c-.046 16.277-2.139 32.563-7.092 48.12l-.482 1.521c-6.7 20.828-16.835 40.484-31.232 57.05-.984 1.163-1.929 2.356-2.881 3.545-2.37 2.904-4.932 5.56-7.592 8.197l-1.317 1.328c-3.01 3.001-6.18 5.705-9.496 8.36q-1.361 1.169-2.719 2.344c-18.953 15.741-42.01 26.146-65.826 31.922q-1.23.304-2.458.625c-3.796.951-7.633 1.567-11.498 2.172l-1.637.259c-7.546 1.146-15.027 1.298-22.645 1.304l-1.577.002c-8.31-.003-16.419-.339-24.642-1.627l-1.208-.186a115 115 0 0 1-6.792-1.314l-1.912-.399c-13.531-2.916-26.918-7.604-39.145-14.105a168 168 0 0 0-2.966-1.516c-10.355-5.256-20.125-11.975-28.977-19.48l-.813-.676c-7.083-5.894-14.046-12.28-19.713-19.572-1.071-1.377-2.208-2.683-3.349-4.002-18.683-22.442-30.147-51.158-34.531-79.813l-.16-1.035c-1.162-7.629-1.551-15.228-1.559-22.933l-.002-1.171c.004-10.833.963-21.672 3.127-32.298l.204-1.01c2.63-12.65 6.729-25.524 12.737-36.979.915-2.477.319-3.945-.76-6.291a259 259 0 0 0-1.025-1.94c-5.436-10.559-8.968-22.123-11-33.813l-.181-1.016c-4.015-24.597.782-50.61 12.527-72.453l.517-.981c10.301-19.489 26.38-35.646 45.483-46.519l1.136-.65c8.797-4.978 18.125-8.665 27.93-11.113a82 82 0 0 0 2.436-.667 69 69 0 0 1 4.498-1.071l.994-.207c13.541-2.671 28.975-2.305 42.506.207" fill="#A0A3CF"/><path d="M94 163a13947 13947 0 0 1 50.65-.22l1.075-.003q8.62-.029 17.239-.086 8.845-.056 17.691-.068 4.968-.006 9.935-.046 4.675-.04 9.351-.029a276 276 0 0 0 3.433-.025 236 236 0 0 1 4.686-.004l1.372-.035c1.908.035 3.095.115 4.58 1.377.922 1.06.922 1.06 1.702 2.11.826 1.083 1.714 1.905 2.753 2.779 2.12 1.802 4.149 3.698 6.031 5.75v.5l-109.5.5 7.5 12.5a805 805 0 0 1 3.75 6.5 648 648 0 0 0 7.5 12.75 747 747 0 0 1 8.438 14.385 601 601 0 0 0 6.564 11.115 747 747 0 0 1 8.438 14.385 601 601 0 0 0 6.562 11.115 747 747 0 0 1 8.438 14.385 601 601 0 0 0 6.562 11.115 747 747 0 0 1 8.438 14.385 601 601 0 0 0 6.562 11.115 747 747 0 0 1 8.438 14.385 602 602 0 0 0 6.562 11.115 775 775 0 0 1 8.51 14.493 969 969 0 0 0 6.713 11.488 2462 2462 0 0 1 6.777 11.519 3459 3459 0 0 0 8.277 14.062 2889 2889 0 0 1 6.63 11.281A2705 2705 0 0 0 254 411.75c4.013 6.76 7.988 13.541 11.959 20.325q2.457 4.197 4.917 8.394l.541.923a3436 3436 0 0 0 7.608 12.915 3291 3291 0 0 1 7.278 12.385 2961 2961 0 0 0 6.947 11.808 3404 3404 0 0 1 8.052 13.692q3.847 6.569 7.725 13.12a3116 3116 0 0 1 7.172 12.209q3.927 6.705 7.895 13.385a2117 2117 0 0 1 9.09 15.477 4190 4190 0 0 0 6.097 10.43l.549.936a3603 3603 0 0 0 7.697 13.063 2881 2881 0 0 1 6.63 11.281 2705 2705 0 0 0 8.343 14.157c4.013 6.76 7.988 13.541 11.959 20.325q2.457 4.198 4.917 8.393l.541.923a3436 3436 0 0 0 7.608 12.915 3291 3291 0 0 1 7.278 12.385A2961 2961 0 0 0 401.75 663a3404 3404 0 0 1 8.052 13.692q3.847 6.569 7.725 13.12a3116 3116 0 0 1 7.172 12.209q3.927 6.705 7.895 13.385a2117 2117 0 0 1 9.09 15.477 4190 4190 0 0 0 6.097 10.43l.549.936a3603 3603 0 0 0 7.697 13.063 2881 2881 0 0 1 6.63 11.281A2705 2705 0 0 0 471 780.75c4.013 6.76 7.988 13.541 11.959 20.325q2.457 4.198 4.917 8.393l.541.923q3.788 6.462 7.604 12.908a2022 2022 0 0 1 4.614 7.838l.558.954 2.237 3.822c2.423 4.143 4.87 8.27 7.386 12.357.684 1.23.684 1.23.684 2.23h1l.426-1.115a30 30 0 0 1 1.756-3.539l.709-1.238.766-1.326.808-1.407c2.388-4.144 4.82-8.261 7.26-12.375 2.021-3.409 4.023-6.83 6.026-10.25q3.735-6.384 7.5-12.75a3342 3342 0 0 0 7.915-13.453l3.834-6.547 4.375-7.468.54-.922a3437 3437 0 0 1 7.609-12.916c2.252-3.808 4.49-7.625 6.726-11.443a3495 3495 0 0 1 8.274-14.056 3048 3048 0 0 0 6.726-11.444 3495 3495 0 0 1 8.274-14.056 3048 3048 0 0 0 6.726-11.444 3478 3478 0 0 1 8.277-14.062 2889 2889 0 0 0 6.63-11.281A2705 2705 0 0 1 622 663.25c4.013-6.76 7.988-13.541 11.959-20.325q2.457-4.198 4.917-8.393l.541-.923a3436 3436 0 0 1 7.608-12.915c2.252-3.808 4.49-7.625 6.726-11.443a3247 3247 0 0 1 7.5-12.75 3342 3342 0 0 0 7.915-13.453L673 576.5l4.375-7.468.54-.922a3437 3437 0 0 1 7.609-12.916c2.252-3.808 4.49-7.625 6.726-11.443a3495 3495 0 0 1 8.274-14.056 3048 3048 0 0 0 6.726-11.444 3495 3495 0 0 1 8.274-14.056 3048 3048 0 0 0 6.726-11.445 3495 3495 0 0 1 8.274-14.056 3048 3048 0 0 0 6.726-11.444 3495 3495 0 0 1 8.274-14.056 3048 3048 0 0 0 6.726-11.444 3495 3495 0 0 1 8.274-14.056 3048 3048 0 0 0 6.726-11.444 3247 3247 0 0 1 7.5-12.75q3.702-6.258 7.375-12.531l.54-.922 3.835-6.547 4.375-7.468.54-.922a3437 3437 0 0 1 7.609-12.916c2.252-3.808 4.49-7.625 6.726-11.443a3495 3495 0 0 1 8.274-14.056 3048 3048 0 0 0 6.726-11.445 3495 3495 0 0 1 8.274-14.056 3048 3048 0 0 0 6.726-11.444 3478 3478 0 0 1 8.277-14.062 2889 2889 0 0 0 6.63-11.281A2705 2705 0 0 1 859 260.25c4.013-6.76 7.988-13.541 11.959-20.325q2.457-4.197 4.917-8.394l.541-.923a3436 3436 0 0 1 7.608-12.915 2975 2975 0 0 0 6.175-10.501A3481 3481 0 0 1 909 175.5l-545-.5-2-12h568c-.801 2.405-1.482 3.938-2.781 6.032l-1.213 1.984-.707 1.159c-1.48 2.455-2.924 4.934-4.37 7.41l-2.796 4.777-.556.949a2053 2053 0 0 1-4.827 8.189 3163 3163 0 0 0-7.5 12.75 3495 3495 0 0 1-8.274 14.056 3048 3048 0 0 0-6.726 11.444 3177 3177 0 0 1-7.5 12.75 3342 3342 0 0 0-7.375 12.531l-.54.921L871 264.5l-4.375 7.469-.54.922a3437 3437 0 0 1-7.609 12.916c-2.252 3.808-4.49 7.625-6.726 11.443a3495 3495 0 0 1-8.274 14.056 3048 3048 0 0 0-6.726 11.444 3495 3495 0 0 1-8.274 14.056 3048 3048 0 0 0-6.726 11.444 3478 3478 0 0 1-8.277 14.062 3116 3116 0 0 0-7.173 12.209q-3.927 6.705-7.895 13.385a2117 2117 0 0 0-9.09 15.477 4190 4190 0 0 1-6.098 10.43l-.548.936q-3.833 6.537-7.694 13.058a3039 3039 0 0 0-6.725 11.443 3495 3495 0 0 1-8.274 14.056 3048 3048 0 0 0-6.726 11.444 3495 3495 0 0 1-8.274 14.056 3048 3048 0 0 0-6.726 11.444 3177 3177 0 0 1-7.5 12.75 3342 3342 0 0 0-7.915 13.453L719 523l-4.375 7.469-.54.922a3437 3437 0 0 1-7.609 12.916c-2.252 3.808-4.49 7.625-6.726 11.443a3495 3495 0 0 1-8.274 14.056 3048 3048 0 0 0-6.726 11.444 3495 3495 0 0 1-8.274 14.056 3048 3048 0 0 0-6.726 11.444 3177 3177 0 0 1-7.5 12.75 3342 3342 0 0 0-7.915 13.453L650.5 639.5l-4.375 7.469-.54.922a3437 3437 0 0 1-7.609 12.916c-2.252 3.808-4.49 7.625-6.726 11.443a3495 3495 0 0 1-8.274 14.056 3048 3048 0 0 0-6.726 11.444 3495 3495 0 0 1-8.274 14.056 3048 3048 0 0 0-6.726 11.444 3177 3177 0 0 1-7.5 12.75 3342 3342 0 0 0-7.915 13.453L582 756l-4.375 7.469-.54.922a3437 3437 0 0 1-7.609 12.916c-2.252 3.808-4.49 7.625-6.726 11.443a3495 3495 0 0 1-8.274 14.056 3048 3048 0 0 0-6.726 11.444 3495 3495 0 0 1-8.274 14.056 3283 3283 0 0 0-7.273 12.377 3138 3138 0 0 1-8.017 13.615q-.702 1.187-1.385 2.382c-.801 1.319-.801 1.319-1.696 2.485-3.522 4.959-3.076 10.028-3.003 15.888q.002 1.671-.002 3.342c-.001 3.01.02 6.02.044 9.03.022 3.151.024 6.302.028 9.453q.015 7.926.063 15.852a5121 5121 0 0 1 .075 17.337l.013 5.056c.036 13.959.098 27.916.176 41.874l1.082.372 15.534 5.345q16.443 5.656 32.855 11.398a14838 14838 0 0 0 14.408 5.032q8.11 2.832 16.227 5.644l1.681.583 8.111 2.809 2.961 1.026 1.331.46a554 554 0 0 1 9.309 3.331v.5H401.5c1.342-.895 2.349-1.351 3.853-1.867l1.46-.504 1.593-.541 1.665-.573q1.78-.612 3.562-1.221a3326 3326 0 0 0 7.575-2.6l.958-.33 2.886-.991a3084 3084 0 0 0 15.947-5.53l7.936-2.772 12.659-4.421 14.224-4.966.991-.346q5.923-2.067 11.844-4.145l6.1-2.138 2.785-.979q1.883-.663 3.768-1.322l1.107-.392c2.473-.863 2.473-.863 3.587-.863.108-14.174.176-28.348.192-42.523l.006-5.042.002-1.014c.007-5.054.037-10.108.08-15.162q.074-8.817.06-17.636a658 658 0 0 1 .045-9.322c.49-18.212.49-18.212-7.439-34.066-1.595-2.083-2.841-4.364-4.134-6.642q-.792-1.342-1.59-2.682c-2.002-3.38-3.987-6.771-5.973-10.162a3152 3152 0 0 0-7.5-12.75 3404 3404 0 0 1-8.052-13.692 2961 2961 0 0 0-6.947-11.803 3404 3404 0 0 1-8.052-13.692 3272 3272 0 0 0-7.725-13.12 3116 3116 0 0 1-7.172-12.209q-3.927-6.705-7.895-13.385a2117 2117 0 0 1-9.09-15.477 4190 4190 0 0 0-6.097-10.43l-.549-.936q-3.833-6.537-7.694-13.058a3289 3289 0 0 1-7.279-12.385A2961 2961 0 0 0 396.25 678a3404 3404 0 0 1-8.052-13.692 3272 3272 0 0 0-7.725-13.12 3116 3116 0 0 1-7.172-12.209q-3.927-6.705-7.895-13.385a2117 2117 0 0 1-9.09-15.477 4190 4190 0 0 0-6.097-10.43l-.549-.936q-3.833-6.537-7.694-13.058a3289 3289 0 0 1-7.279-12.385 2961 2961 0 0 0-6.947-11.808 3404 3404 0 0 1-8.052-13.692A2961 2961 0 0 0 312.75 536a3404 3404 0 0 1-8.052-13.692 2967 2967 0 0 0-6.948-11.808 3342 3342 0 0 1-7.375-12.531l-.54-.922-4.387-7.49-3.823-6.526-.54-.922a3437 3437 0 0 0-7.609-12.916 3291 3291 0 0 1-7.278-12.385A2961 2961 0 0 0 259.25 445a3404 3404 0 0 1-8.052-13.692 2961 2961 0 0 0-6.948-11.808 3404 3404 0 0 1-8.052-13.692A2967 2967 0 0 0 229.25 394a3342 3342 0 0 1-7.375-12.531l-.54-.922-4.387-7.49-3.823-6.526-.54-.922a3437 3437 0 0 0-7.609-12.916 3291 3291 0 0 1-7.278-12.385 2961 2961 0 0 0-6.948-11.808 3404 3404 0 0 1-8.052-13.692A2961 2961 0 0 0 175.75 303a3404 3404 0 0 1-8.052-13.692 3272 3272 0 0 0-7.725-13.12 3116 3116 0 0 1-7.172-12.209q-3.927-6.705-7.895-13.385a2117 2117 0 0 1-9.09-15.477 4190 4190 0 0 0-6.098-10.43l-.548-.936q-3.833-6.537-7.694-13.058a3289 3289 0 0 1-7.279-12.385 3256 3256 0 0 0-7.71-13.096c-2.736-4.624-5.45-9.26-8.165-13.896l-.534-.913-1.442-2.462a122 122 0 0 0-1.708-2.817C94 164 94 164 94 163" fill="#2D2E52"/><path d="m205 15 1.8.227c11.972 1.53 23.657 3.734 35.2 7.273l1.532.457c20.613 6.2 40.192 16.024 56.968 29.543l1.387 1.095C309.966 60.067 317.605 67.356 324 75.5q.688.83 1.379 1.657c11.928 14.37 20.756 31.517 27.124 48.986a165 165 0 0 0 1.239 3.275c2.047 5.383 3.4 10.986 4.852 16.551.375 1.413.77 2.817 1.17 4.223.914 3.348 1.57 6.742 2.205 10.152l.195 1.046c3.722 20.128 4.559 40.182 4.336 60.61-6.396 1.599-12.822 1.602-19.375 1.594l-1.234-.001c-6.841-.011-13.592-.296-20.392-1.093l-1.179-.122c-19.348-2.039-39.133-8.831-56.274-17.832a311 311 0 0 0-3.536-1.806c-9.63-4.903-18.425-10.687-27.01-17.24l-1.015-.772c-3.408-2.606-6.708-5.295-9.868-8.202a128 128 0 0 0-3.179-2.807c-1.764-1.532-3.398-3.169-5.035-4.834-.93-.945-.93-.945-2.184-1.885-1.371-1.125-2.436-2.361-3.583-3.709-1.17-1.33-2.38-2.612-3.6-3.895a132 132 0 0 1-9.374-11.036 159 159 0 0 0-2.013-2.556c-27.168-33.922-44.093-75.779-55.091-117.506q-.273-1.035-.549-2.07a411 411 0 0 1-.756-2.9l-.44-1.691c-.333-1.748-.366-3.362-.312-5.138 21.378-3.329 43.008-4.298 64.5-1.5" fill="#9FD778"/><path d="m486 211 1.208.219c8.518 1.594 16.863 4.296 24.791 7.781l1.191.523c9.406 4.186 17.909 9.377 25.809 15.977l.88.727c18.632 15.411 32.543 36.261 38.62 59.773l.305 1.163a303 303 0 0 1 .882 3.493l.273 1.079c.423 1.788.569 3.014.04 4.766l-1.036-.419c-12.446-5.028-24.377-9.116-37.635-11.355-1.278-.216-2.555-.44-3.833-.664l-2.34-.404-1.032-.181c-4.68-.786-9.358-1.054-14.098-1.06l-1.538-.005q-1.605-.004-3.211-.004-2.39-.003-4.782-.02C477.5 292.298 445.168 302.111 418 321l-.845.586a156 156 0 0 0-11.655 8.915l-1.51 1.228c-3.918 3.225-7.551 6.726-11.146 10.303l-1.392 1.378c-3.03 3.042-5.789 6.223-8.452 9.59l-1.484 1.84c-7.376 9.267-13.358 19.278-19.016 29.66-1.589-1.486-2.459-3.19-3.406-5.125l-.532-1.08c-5.019-10.341-8.438-21.509-10.406-32.827l-.181-1.016c-4.017-24.596.78-50.609 12.525-72.452l.517-.981c10.301-19.489 26.38-35.646 45.483-46.519l1.136-.65c8.797-4.978 18.125-8.665 27.93-11.113a82 82 0 0 0 2.436-.667 69 69 0 0 1 4.498-1.071l.994-.207c13.541-2.671 28.975-2.305 42.506.207M613.5 475.5c1.258 1.258 1.518 2.314 2.078 4.005l.316.947q.504 1.518 1.002 3.037l.623 1.873q1.151 3.474 2.296 6.951L625 508l35.5.5c-1.465 1.172-2.898 2.313-4.414 3.406l-1.073.775-1.137.819-1.198.863A1035 1035 0 0 1 632.5 528.5c.303 3.516 1.502 6.702 2.645 10.024l.968 2.86q1.191 3.511 2.394 7.019.675 1.976 1.345 3.954.629 1.861 1.27 3.717l.572 1.695.51 1.492c.296 1.239.296 1.239-.204 2.739l-1.342-.992a712 712 0 0 0-13.56-9.735 867 867 0 0 1-3.385-2.398l-1.139-.808q-1.067-.758-2.132-1.518a121 121 0 0 0-6.941-4.548l-.692.501a1335 1335 0 0 1-15.727 11.237q-1.71 1.206-3.415 2.417l-1.162.825-2.195 1.56c-1.732 1.227-3.466 2.399-5.309 3.459 1.049-4.037 2.285-7.99 3.615-11.944l.599-1.792q.938-2.804 1.88-5.608l1.28-3.827q1.56-4.665 3.126-9.329c-1.97-2.02-1.97-2.02-4.195-3.736l-.936-.633-.994-.661-2.152-1.459-1.115-.755c-3.235-2.205-6.418-4.484-9.607-6.755l-1.25-.89a1596 1596 0 0 1-3.781-2.704l-1.2-.856-1.098-.79-.979-.702-.694-.559v-.5H603l1-4.5q.465-1.573.986-3.127l.576-1.728.615-1.819.634-1.897q.829-2.475 1.662-4.949.851-2.534 1.7-5.069 1.66-4.957 3.328-9.911" fill="#3C4FC2"/><path d="M207 29c1.37.506 1.923.875 2.697 2.137l.639 1.443.745 1.647.794 1.804q.865 1.915 1.736 3.828l.459 1.012c1.778 3.917 3.644 7.79 5.524 11.659l.516 1.063c5.019 10.465 5.019 10.465 10.91 20.45.48.957.48.957.48 2.957l.875.411c1.13.591 2.108 1.251 3.135 2.006l1.163.854 1.234.915 1.282.948c3.546 2.637 7 5.374 10.432 8.156 1.438 1.157 2.893 2.291 4.348 3.426 5.811 4.551 11.505 9.248 17.195 13.947A363 363 0 0 0 276.5 112l-.38-.933c-4.481-11.043-8.687-22.16-12.494-33.453l-.81-2.392q-.571-1.683-1.13-3.369l-.342-1c-.754-2.296-1.105-4.462-1.344-6.853 1.152.003 1.152.003 2.5.5a25 25 0 0 1 1.565 3.953l.41 1.242a279 279 0 0 1 .862 2.662c.599 1.879 1.22 3.749 1.841 5.62q.474 1.432.945 2.865c1.43 4.35 2.936 8.669 4.502 12.972l.37 1.018c4.58 14.092 4.58 14.092 13.161 25.733l.873.777a255 255 0 0 0 2.471 2.158l1.101.967a425 425 0 0 0 1.861 1.621c2.055 1.808 4.062 3.671 6.072 5.527a346 346 0 0 0 2.237 2.031c4.165 3.772 8.143 7.71 12.102 11.697l1.942 1.948q2.345 2.353 4.685 4.709l-.38-1.461a223 223 0 0 1-3.245-14.758l-.216-1.15c-1.397-7.442-2.651-14.909-3.877-22.381l-.272-1.646q-.382-2.325-.757-4.651l-.232-1.407-.209-1.306-.183-1.133c-.141-1.211-.15-2.389-.129-3.607l2.5-.5c.718 1.436.793 2.842 1.008 4.434l.297 2.166.158 1.155c2.057 15.027 4.55 30.097 8.537 44.746l.451 1.908c1.42 5.223 4.008 8.101 7.79 11.826 1.76 1.776 3.244 3.782 4.759 5.766l1.565 2.039q1.709 2.23 3.408 4.467a187 187 0 0 0 3.496 4.431c1.831 2.358 3.163 4.917 4.532 7.563l1.246 2.34 1.348 2.535.649 1.218C355 200.768 355 200.768 355 203.5l-2.5.5-.573-1.525c-2.137-5.519-4.836-10.523-7.921-15.568C343.5 186 343.5 186 343 184.5l-1.172-.17a65 65 0 0 1-4.156-.894c-9.767-2.412-19.651-4.056-29.565-5.736-4.582-.777-9.155-1.595-13.727-2.426a235 235 0 0 0-9.375-1.494c-1.567-.29-3.006-.742-4.505-1.279l.5-2c2.676-.057 5.096.112 7.74.604l1.042.19q1.095.2 2.188.403c1.896.353 3.795.696 5.692 1.038l1.132.204c3.57.638 7.152 1.167 10.748 1.637 2.866.379 2.866.379 3.958.925.955.162 1.913.304 2.871.438 3.602.535 7.138 1.276 10.691 2.063 4.135.909 8.265 1.778 12.438 2.5-5.685-7.953-11.919-15.392-18.596-22.524-.929-1.002-1.847-2.015-2.766-3.028-2.905-3.195-5.9-6.287-8.96-9.335a873 873 0 0 1-2.329-2.332c-2.404-2.406-4.83-4.76-7.415-6.973-2.039-1.766-3.974-3.65-5.933-5.505a190 190 0 0 0-6.051-5.459 61 61 0 0 1-2.572-2.446l-1.596-1.524-.741-.781C279.39 117.68 275.08 117.5 271 117l-1.099-.137c-2.744-.331-5.492-.588-8.245-.832l-1.343-.122c-15.403-1.39-30.87-2.092-46.313-2.909l-.5-2.5c20.49-.513 41.205 1.244 61.5 4l-.904-.739a2175 2175 0 0 1-7.617-6.252c-9.03-7.457-9.03-7.457-18.247-14.684a555 555 0 0 1-4.985-3.862c-3.57-2.788-7.151-5.56-10.793-8.253a137 137 0 0 1-5.02-3.882l-1.045-.832a84 84 0 0 1-1.925-1.581c-4.58-3.607-11.053-3.136-16.62-3.416l-2.265-.121c-11.853-.613-23.718-.977-35.579-1.378l.5-2.5c8.649-.048 17.293-.086 25.938.219l1.704.059c2.825.11 5.638.274 8.457.49A88 88 0 0 0 215 68c-5.476-4.176-11.056-8.178-16.713-12.104a807 807 0 0 1-3.829-2.685C184.303 46.059 173.895 39.296 163.5 32.5l1-2.5c8.512 4.027 16.245 10.193 24 15.5l2.381 1.625c7.404 5.062 14.699 10.275 21.962 15.537q2.999 2.171 6.001 4.338l1.106.8q3.268 2.36 6.55 4.7l-.735-1.25c-2.618-4.494-4.995-9.072-7.266-13.75l-.656-1.349a1267 1267 0 0 1-4.508-9.399 751 751 0 0 0-2.229-4.622q-.929-1.922-1.846-3.849a231 231 0 0 0-.901-1.86 222 222 0 0 1-1.246-2.602l-.726-1.505C206 31 206 31 206.43 29.824z" fill="#313552"/></svg>